<svg
  xmlns="http://www.w3.org/2000/svg"
  width="2500"
  height="2500"
  viewBox="32 32 960 960"
>
  <path
    d="M179.928 32h664.144C925.767 32 992 98.23 992 179.93V844.07C992 925.768 925.767 992 844.072 992H179.928C98.23 992 32 925.768 32 844.07V179.93C32 98.23 98.23 32 179.928 32"
    fill="#4c75a3"
  />
  <path
    d="M503.946 704.03h39.27s11.858-1.308 17.922-7.832c5.573-5.996 5.396-17.25 5.396-17.25s-.77-52.69 23.683-60.45c24.113-7.648 55.07 50.924 87.88 73.448 24.812 17.04 43.667 13.31 43.667 13.31l87.74-1.227s45.894-2.833 24.13-38.918c-1.78-2.947-12.678-26.693-65.237-75.48-55.02-51.062-47.644-42.8 18.626-131.128 40.358-53.79 56.49-86.628 51.45-100.69-4.804-13.4-34.49-9.86-34.49-9.86l-98.786.61s-7.328-.998-12.756 2.25c-5.31 3.177-8.716 10.6-8.716 10.6s-15.642 41.62-36.486 77.023c-43.988 74.693-61.58 78.647-68.77 74.002-16.73-10.812-12.55-43.423-12.55-66.597 0-72.39 10.98-102.57-21.38-110.384-10.738-2.592-18.647-4.306-46.11-4.586-35.25-.358-65.08.108-81.972 8.384-11.24 5.504-19.91 17.766-14.626 18.472 6.53.87 21.313 3.99 29.152 14.655 10.126 13.776 9.772 44.703 9.772 44.703s5.818 85.213-13.585 95.795c-13.315 7.26-31.583-7.56-70.8-75.327-20.092-34.712-35.266-73.085-35.266-73.085s-2.922-7.17-8.14-11.007c-6.33-4.65-15.176-6.124-15.176-6.124l-93.876.612s-14.09.394-19.267 6.52c-4.606 5.456-.368 16.726-.368 16.726s73.49 171.942 156.71 258.592c76.316 79.454 162.96 74.24 162.96 74.24"
    fill="#fff"
  />
</svg>